<svg width="50" height="50" viewBox="0 0 50 50" fill="none" xmlns="http://www.w3.org/2000/svg">
<g clip-path="url(#clip0_798_23323)">
<path d="M25.0082 0C14.5709 0 11.5184 0.0107715 10.925 0.0599998C8.78314 0.238091 7.45032 0.575433 5.99827 1.29855C4.87926 1.85439 3.99672 2.49866 3.12573 3.40182C1.5395 5.04888 0.57814 7.0752 0.230121 9.48388C0.0609306 10.6532 0.0117018 10.8917 0.00170499 16.8645C-0.00213123 18.8554 0.00170499 21.4757 0.00170499 24.9902C0.00170499 35.4218 0.0132325 38.4721 0.0632356 39.0645C0.236281 41.1493 0.563134 42.4609 1.25532 43.8956C2.57815 46.642 5.10458 48.7037 8.08096 49.473C9.11154 49.7384 10.2498 49.8846 11.711 49.9538C12.3302 49.9808 18.6405 50 24.9547 50C31.2689 50 37.5831 49.9923 38.1868 49.9615C39.8788 49.8819 40.8613 49.75 41.9477 49.4692C44.9433 48.696 47.4236 46.6651 48.7733 43.8802C49.452 42.4801 49.7962 41.1185 49.9519 39.1425C49.9858 38.7117 50 31.8431 50 24.9837C50 18.1231 49.9846 11.2671 49.9508 10.8363C49.7931 8.82843 49.4489 7.47833 48.7483 6.05127C48.1734 4.88309 47.5351 4.0107 46.6084 3.11873C44.9544 1.53859 42.9317 0.576964 40.5214 0.229247C39.3535 0.060378 39.1209 0.0103748 33.1451 0H25.0082Z" fill="url(#paint0_radial_798_23323)"/>
<path d="M25.0082 0C14.5709 0 11.5184 0.0107715 10.925 0.0599998C8.78314 0.238091 7.45032 0.575433 5.99827 1.29855C4.87926 1.85439 3.99672 2.49866 3.12573 3.40182C1.5395 5.04888 0.57814 7.0752 0.230121 9.48388C0.0609306 10.6532 0.0117018 10.8917 0.00170499 16.8645C-0.00213123 18.8554 0.00170499 21.4757 0.00170499 24.9902C0.00170499 35.4218 0.0132325 38.4721 0.0632356 39.0645C0.236281 41.1493 0.563134 42.4609 1.25532 43.8956C2.57815 46.642 5.10458 48.7037 8.08096 49.473C9.11154 49.7384 10.2498 49.8846 11.711 49.9538C12.3302 49.9808 18.6405 50 24.9547 50C31.2689 50 37.5831 49.9923 38.1868 49.9615C39.8788 49.8819 40.8613 49.75 41.9477 49.4692C44.9433 48.696 47.4236 46.6651 48.7733 43.8802C49.452 42.4801 49.7962 41.1185 49.9519 39.1425C49.9858 38.7117 50 31.8431 50 24.9837C50 18.1231 49.9846 11.2671 49.9508 10.8363C49.7931 8.82843 49.4489 7.47833 48.7483 6.05127C48.1734 4.88309 47.5351 4.0107 46.6084 3.11873C44.9544 1.53859 42.9317 0.576964 40.5214 0.229247C39.3535 0.060378 39.1209 0.0103748 33.1451 0H25.0082Z" fill="url(#paint1_radial_798_23323)"/>
<path d="M25.0082 0C14.5709 0 11.5184 0.0107715 10.925 0.0599998C8.78314 0.238091 7.45032 0.575433 5.99827 1.29855C4.87926 1.85439 3.99672 2.49866 3.12573 3.40182C1.5395 5.04888 0.57814 7.0752 0.230121 9.48388C0.0609306 10.6532 0.0117018 10.8917 0.00170499 16.8645C-0.00213123 18.8554 0.00170499 21.4757 0.00170499 24.9902C0.00170499 35.4218 0.0132325 38.4721 0.0632356 39.0645C0.236281 41.1493 0.563134 42.4609 1.25532 43.8956C2.57815 46.642 5.10458 48.7037 8.08096 49.473C9.11154 49.7384 10.2498 49.8846 11.711 49.9538C12.3302 49.9808 18.6405 50 24.9547 50C31.2689 50 37.5831 49.9923 38.1868 49.9615C39.8788 49.8819 40.8613 49.75 41.9477 49.4692C44.9433 48.696 47.4236 46.6651 48.7733 43.8802C49.452 42.4801 49.7962 41.1185 49.9519 39.1425C49.9858 38.7117 50 31.8431 50 24.9837C50 18.1231 49.9846 11.2671 49.9508 10.8363C49.7931 8.82843 49.4489 7.47833 48.7483 6.05127C48.1734 4.88309 47.5351 4.0107 46.6084 3.11873C44.9544 1.53859 42.9317 0.576964 40.5214 0.229247C39.3535 0.060378 39.1209 0.0103748 33.1451 0H25.0082Z" fill="url(#paint2_radial_798_23323)"/>
<path d="M25.0082 0C14.5709 0 11.5184 0.0107715 10.925 0.0599998C8.78314 0.238091 7.45032 0.575433 5.99827 1.29855C4.87926 1.85439 3.99672 2.49866 3.12573 3.40182C1.5395 5.04888 0.57814 7.0752 0.230121 9.48388C0.0609306 10.6532 0.0117018 10.8917 0.00170499 16.8645C-0.00213123 18.8554 0.00170499 21.4757 0.00170499 24.9902C0.00170499 35.4218 0.0132325 38.4721 0.0632356 39.0645C0.236281 41.1493 0.563134 42.4609 1.25532 43.8956C2.57815 46.642 5.10458 48.7037 8.08096 49.473C9.11154 49.7384 10.2498 49.8846 11.711 49.9538C12.3302 49.9808 18.6405 50 24.9547 50C31.2689 50 37.5831 49.9923 38.1868 49.9615C39.8788 49.8819 40.8613 49.75 41.9477 49.4692C44.9433 48.696 47.4236 46.6651 48.7733 43.8802C49.452 42.4801 49.7962 41.1185 49.9519 39.1425C49.9858 38.7117 50 31.8431 50 24.9837C50 18.1231 49.9846 11.2671 49.9508 10.8363C49.7931 8.82843 49.4489 7.47833 48.7483 6.05127C48.1734 4.88309 47.5351 4.0107 46.6084 3.11873C44.9544 1.53859 42.9317 0.576964 40.5214 0.229247C39.3535 0.060378 39.1209 0.0103748 33.1451 0H25.0082Z" fill="url(#paint3_radial_798_23323)"/>
<path d="M25.0099 6.4209C19.9611 6.4209 19.3274 6.44295 17.3445 6.53313C15.3654 6.62369 14.0145 6.93679 12.8324 7.39619C11.6097 7.87065 10.5725 8.50535 9.53922 9.53827C8.50514 10.5708 7.86995 11.6072 7.39358 12.8287C6.93268 14.0102 6.61896 15.3605 6.5299 17.3373C6.44121 19.3188 6.41797 19.9524 6.41797 24.9975C6.41797 30.0426 6.44044 30.6738 6.53028 32.6553C6.62131 34.6329 6.93463 35.9828 7.39396 37.164C7.86918 38.3858 8.50434 39.4222 9.53804 40.4547C10.571 41.488 11.6082 42.1243 12.8301 42.5988C14.0129 43.0582 15.3642 43.3713 17.3429 43.4618C19.3259 43.552 19.9591 43.574 25.0076 43.574C30.0568 43.574 30.6885 43.552 32.6714 43.4618C34.6506 43.3712 36.003 43.0582 37.1858 42.5988C38.4081 42.1243 39.4438 41.488 40.4767 40.4547C41.5108 39.4222 42.146 38.3858 42.6223 37.1644C43.0793 35.9828 43.3931 34.6325 43.486 32.6557C43.5751 30.6742 43.5983 30.0426 43.5983 24.9975C43.5983 19.9524 43.5751 19.3192 43.486 17.3377C43.3931 15.3601 43.0793 14.0102 42.6223 12.8291C42.146 11.6072 41.5108 10.5708 40.4767 9.53827C39.4426 8.50495 38.4085 7.87025 37.1847 7.39617C35.9995 6.93679 34.6478 6.62369 32.6687 6.53313C30.6858 6.44295 30.0545 6.4209 25.0041 6.4209H25.0099ZM23.3422 9.76856C23.8372 9.76778 24.3894 9.76856 25.0099 9.76856C29.9735 9.76856 30.5618 9.78636 32.5219 9.87537C34.3345 9.9582 35.3182 10.2608 35.9736 10.5151C36.8411 10.8518 37.4596 11.2543 38.1099 11.9045C38.7606 12.5547 39.1633 13.1739 39.5011 14.0408C39.7555 14.6948 40.0588 15.6778 40.1413 17.4891C40.2304 19.4473 40.2497 20.0356 40.2497 24.9932C40.2497 29.9508 40.2304 30.5391 40.1413 32.4974C40.0584 34.3086 39.7555 35.2916 39.5011 35.9456C39.1641 36.8126 38.7606 37.4298 38.1099 38.0796C37.4593 38.7298 36.8415 39.1323 35.9736 39.469C35.319 39.7244 34.3345 40.0263 32.5219 40.1091C30.5622 40.1981 29.9735 40.2175 25.0099 40.2175C20.0459 40.2175 19.4576 40.1981 17.4978 40.1091C15.6853 40.0255 14.7015 39.7229 14.0458 39.4686C13.1783 39.1319 12.5586 38.7294 11.9079 38.0792C11.2573 37.4291 10.8545 36.8114 10.5168 35.9441C10.2623 35.29 9.95905 34.307 9.87656 32.4958C9.78747 30.5375 9.76965 29.9493 9.76965 24.9886C9.76965 20.0279 9.78747 19.4427 9.87656 17.4844C9.95944 15.6732 10.2623 14.6902 10.5168 14.0354C10.8537 13.1685 11.2573 12.5492 11.9079 11.8991C12.5586 11.2489 13.1783 10.8464 14.0458 10.5089C14.7011 10.2535 15.6853 9.95162 17.4978 9.8684C19.2128 9.79099 19.8774 9.76778 23.3422 9.76389L23.3422 9.76856ZM34.9333 12.853C33.7017 12.853 32.7024 13.8504 32.7024 15.0814C32.7024 16.3122 33.7017 17.3106 34.9333 17.3106C36.1649 17.3106 37.1641 16.3122 37.1641 15.0814C37.1641 13.8508 36.1649 12.8523 34.9333 12.8523L34.9333 12.853ZM25.0099 15.4576C19.7376 15.4576 15.463 19.7291 15.463 24.9975C15.463 30.2659 19.7376 34.5354 25.0099 34.5354C30.2822 34.5354 34.5553 30.2659 34.5553 24.9975C34.5553 19.7291 30.2818 15.4576 25.0095 15.4576H25.0099ZM25.0099 18.8053C28.4321 18.8053 31.2067 21.5774 31.2067 24.9975C31.2067 28.4171 28.4321 31.1897 25.0099 31.1897C21.5873 31.1897 18.8131 28.4171 18.8131 24.9975C18.8131 21.5774 21.5873 18.8053 25.0099 18.8053Z" fill="white"/>
</g>
<defs>
<radialGradient id="paint0_radial_798_23323" cx="0" cy="0" r="1" gradientTransform="matrix(-30.7478 8.67159 -6.24755 -22.1523 48.3855 23.4356)" gradientUnits="userSpaceOnUse">
<stop stop-color="#FF005F"/>
<stop offset="1" stop-color="#FC01D8"/>
</radialGradient>
<radialGradient id="paint1_radial_798_23323" cx="0" cy="0" r="1" gradientUnits="userSpaceOnUse" gradientTransform="translate(13.2809 53.851) rotate(-90) scale(39.9109 42.3447)">
<stop stop-color="#FFCC00"/>
<stop offset="0.1242" stop-color="#FFCC00"/>
<stop offset="0.5672" stop-color="#FE4A05"/>
<stop offset="0.6942" stop-color="#FF0F3F"/>
<stop offset="1" stop-color="#FE0657" stop-opacity="0"/>
</radialGradient>
<radialGradient id="paint2_radial_798_23323" cx="0" cy="0" r="1" gradientTransform="matrix(8.28409 -14.2738 18.5828 10.785 26.2635 49.2949)" gradientUnits="userSpaceOnUse">
<stop stop-color="#FFCC00"/>
<stop offset="1" stop-color="#FFCC00" stop-opacity="0"/>
</radialGradient>
<radialGradient id="paint3_radial_798_23323" cx="0" cy="0" r="1" gradientTransform="matrix(-30.4102 8.563 -2.91666 -10.3609 6.78393 2.03599)" gradientUnits="userSpaceOnUse">
<stop stop-color="#780CFF"/>
<stop offset="1" stop-color="#820BFF" stop-opacity="0"/>
</radialGradient>
<clipPath id="clip0_798_23323">
<rect width="50" height="50" fill="white"/>
</clipPath>
</defs>
</svg>
