<svg width="50" height="49" viewBox="0 0 50 49" fill="none" xmlns="http://www.w3.org/2000/svg">
<path d="M42.6024 41.7513H35.1939V30.381C35.1939 27.6697 35.1446 24.1793 31.3408 24.1793C27.4822 24.1793 26.8919 27.1335 26.8919 30.1836V41.7505H19.4834V18.3687H26.5955V21.564H26.6951C27.4068 20.3714 28.4353 19.3902 29.671 18.7251C30.9068 18.06 32.3034 17.7358 33.7123 17.7871C41.221 17.7871 42.6055 22.6274 42.6055 28.9244L42.6024 41.7513ZM11.1242 15.1725C10.2739 15.1727 9.44264 14.9257 8.73556 14.4629C8.02847 14 7.47735 13.3421 7.15181 12.5722C6.82627 11.8024 6.74096 10.9553 6.9067 10.1379C7.07243 9.32057 7.48177 8.56975 8.08292 7.98039C8.68406 7.39103 9.45004 6.98961 10.284 6.82689C11.1179 6.66417 11.9823 6.74746 12.768 7.06622C13.5536 7.38498 14.2251 7.9249 14.6977 8.6177C15.1702 9.3105 15.4225 10.1251 15.4227 10.9584C15.4228 11.5117 15.3116 12.0596 15.0957 12.5708C14.8797 13.0821 14.5632 13.5466 14.164 13.9379C13.7649 14.3292 13.291 14.6397 12.7694 14.8515C12.2478 15.0633 11.6888 15.1724 11.1242 15.1725ZM14.8284 41.7513H7.41228V18.3687H14.8284V41.7513ZM46.2958 0.00333845H3.68956C2.72252 -0.00735671 1.79066 0.358646 1.09883 1.02092C0.407004 1.68319 0.0118022 2.58755 0 3.53528V45.464C0.0113983 46.4122 0.406369 47.3172 1.09817 47.9801C1.78998 48.6431 2.72204 49.0098 3.68956 48.9997H46.2958C47.2652 49.0116 48.1999 48.646 48.8944 47.983C49.589 47.3201 49.9866 46.4141 50 45.464V3.53225C49.9862 2.58265 49.5883 1.67726 48.8937 1.015C48.1992 0.352745 47.2648 -0.0122121 46.2958 0.000312011" fill="#0A66C2"/>
</svg>
