<svg width="14" height="14" viewBox="0 0 14 14" fill="none" xmlns="http://www.w3.org/2000/svg">
<path d="M1.16663 1.16699H2.18163C2.81163 1.16699 3.30746 1.70949 3.25496 2.33366L2.77079 8.14365C2.68913 9.09449 3.44162 9.91115 4.39829 9.91115H10.6108C11.4508 9.91115 12.1858 9.22283 12.25 8.38866L12.565 4.01366C12.635 3.04533 11.9 2.25782 10.9258 2.25782H3.39496" stroke="white" stroke-width="1.5" stroke-miterlimit="10" stroke-linecap="round" stroke-linejoin="round"/>
<path d="M9.47917 12.8333C9.88187 12.8333 10.2083 12.5069 10.2083 12.1042C10.2083 11.7015 9.88187 11.375 9.47917 11.375C9.07646 11.375 8.75 11.7015 8.75 12.1042C8.75 12.5069 9.07646 12.8333 9.47917 12.8333Z" stroke="white" stroke-width="1.5" stroke-miterlimit="10" stroke-linecap="round" stroke-linejoin="round"/>
<path d="M4.81254 12.8333C5.21525 12.8333 5.54171 12.5069 5.54171 12.1042C5.54171 11.7015 5.21525 11.375 4.81254 11.375C4.40983 11.375 4.08337 11.7015 4.08337 12.1042C4.08337 12.5069 4.40983 12.8333 4.81254 12.8333Z" stroke="white" stroke-width="1.5" stroke-miterlimit="10" stroke-linecap="round" stroke-linejoin="round"/>
<path d="M5.25 4.66699H12.25" stroke="white" stroke-width="1.5" stroke-miterlimit="10" stroke-linecap="round" stroke-linejoin="round"/>
</svg>
